# MagicaVoxel @ Ephtracy

# group
o 

# material
mtllib fast.mtl
usemtl palette

# normals
vn -1 0 0
vn 1 0 0
vn 0 0 1
vn 0 0 -1
vn 0 -1 0
vn 0 1 0

# texcoords
vt 0.208984 0.5
vt 0.767578 0.5

# verts
v 0.1 2.6 -0.7
v 0.1 2.6 -0.9
v 0.1 2.7 -0.7
v 0.1 2.7 -0.9
v 0.2 2.7 -0.7
v 0.2 2.7 -0.9
v 0.2 2.8 -0.7
v 0.2 2.8 -0.9
v 0.3 2.6 -0.6
v 0.3 2.6 -0.7
v 0.3 2.6 -0.9
v 0.3 2.6 -1
v 0.3 2.8 -0.7
v 0.3 2.8 -0.9
v 0.3 2.9 -0.6
v 0.3 2.9 -1
v 0.5 2.5 -0.5
v 0.5 2.5 -1.1
v 0.5 2.6 -0.6
v 0.5 2.6 -1
v 0.5 2.9 -0.6
v 0.5 2.9 -1
v 0.5 3.1 -0.5
v 0.5 3.1 -1.1
v 0.7 2.5 -0.4
v 0.7 2.5 -0.5
v 0.7 2.5 -1.1
v 0.7 2.5 -1.2
v 0.7 3.1 -0.5
v 0.7 3.1 -1.1
v 0.7 3.2 -0.4
v 0.7 3.2 -1.2
v 1.3 3.2 -0.4
v 1.3 3.2 -0.6
v 1.3 3.2 -1
v 1.3 3.2 -1.2
v 1.3 3.3 -0.4
v 1.3 3.3 -0.6
v 1.3 3.3 -1
v 1.3 3.3 -1.2
v 1.3 2.7 -0.7
v 1.3 2.7 -0.9
v 1.3 2.9 -0.7
v 1.3 2.9 -0.9
v 1.4 2.5 -0.4
v 1.4 2.5 -1.2
v 1.4 2.7 -0.7
v 1.4 2.7 -0.9
v 1.4 2.9 -0.7
v 1.4 2.9 -0.9
v 1.4 3.1 -0.4
v 1.4 3.1 -0.6
v 1.4 3.1 -1
v 1.4 3.1 -1.2
v 1.4 3.2 -0.6
v 1.4 3.2 -1
v 1.5 3.1 -0.4
v 1.5 3.1 -0.6
v 1.5 3.1 -1
v 1.5 3.1 -1.2
v 1.5 3.3 -0.4
v 1.5 3.3 -0.6
v 1.5 3.3 -1
v 1.5 3.3 -1.2
v 0.7 2.5 -0.4
v 0.7 3.2 -0.4
v 1.3 3.1 -0.4
v 1.3 3.2 -0.4
v 1.3 3.3 -0.4
v 1.4 2.5 -0.4
v 1.4 3.1 -0.4
v 1.5 3.1 -0.4
v 1.5 3.3 -0.4
v 0.5 2.5 -0.5
v 0.5 3.1 -0.5
v 0.7 2.5 -0.5
v 0.7 3.1 -0.5
v 0.3 2.6 -0.6
v 0.3 2.9 -0.6
v 0.5 2.6 -0.6
v 0.5 2.9 -0.6
v 0.1 2.6 -0.7
v 0.1 2.7 -0.7
v 0.2 2.7 -0.7
v 0.2 2.8 -0.7
v 0.3 2.6 -0.7
v 0.3 2.8 -0.7
v 1.3 2.7 -0.9
v 1.3 2.9 -0.9
v 1.4 2.7 -0.9
v 1.4 2.9 -0.9
v 1.3 3.2 -1
v 1.3 3.3 -1
v 1.4 3.1 -1
v 1.4 3.2 -1
v 1.5 3.1 -1
v 1.5 3.3 -1
v 1.3 3.2 -0.6
v 1.3 3.3 -0.6
v 1.4 3.1 -0.6
v 1.4 3.2 -0.6
v 1.5 3.1 -0.6
v 1.5 3.3 -0.6
v 1.3 2.7 -0.7
v 1.3 2.9 -0.7
v 1.4 2.7 -0.7
v 1.4 2.9 -0.7
v 0.1 2.6 -0.9
v 0.1 2.7 -0.9
v 0.2 2.7 -0.9
v 0.2 2.8 -0.9
v 0.3 2.6 -0.9
v 0.3 2.8 -0.9
v 0.3 2.6 -1
v 0.3 2.9 -1
v 0.5 2.6 -1
v 0.5 2.9 -1
v 0.5 2.5 -1.1
v 0.5 3.1 -1.1
v 0.7 2.5 -1.1
v 0.7 3.1 -1.1
v 0.7 2.5 -1.2
v 0.7 3.2 -1.2
v 1.3 3.1 -1.2
v 1.3 3.2 -1.2
v 1.3 3.3 -1.2
v 1.4 2.5 -1.2
v 1.4 3.1 -1.2
v 1.5 3.1 -1.2
v 1.5 3.3 -1.2
v 0.7 2.5 -0.4
v 1.4 2.5 -0.4
v 0.5 2.5 -0.5
v 0.7 2.5 -0.5
v 0.5 2.5 -1.1
v 0.7 2.5 -1.1
v 0.7 2.5 -1.2
v 1.4 2.5 -1.2
v 0.3 2.6 -0.6
v 0.5 2.6 -0.6
v 0.1 2.6 -0.7
v 0.3 2.6 -0.7
v 0.1 2.6 -0.9
v 0.3 2.6 -0.9
v 0.3 2.6 -1
v 0.5 2.6 -1
v 1.3 2.9 -0.7
v 1.4 2.9 -0.7
v 1.3 2.9 -0.9
v 1.4 2.9 -0.9
v 1.4 3.1 -0.4
v 1.5 3.1 -0.4
v 1.4 3.1 -0.6
v 1.5 3.1 -0.6
v 1.4 3.1 -1
v 1.5 3.1 -1
v 1.4 3.1 -1.2
v 1.5 3.1 -1.2
v 0.1 2.7 -0.7
v 0.2 2.7 -0.7
v 1.3 2.7 -0.7
v 1.4 2.7 -0.7
v 0.1 2.7 -0.9
v 0.2 2.7 -0.9
v 1.3 2.7 -0.9
v 1.4 2.7 -0.9
v 0.2 2.8 -0.7
v 0.3 2.8 -0.7
v 0.2 2.8 -0.9
v 0.3 2.8 -0.9
v 0.3 2.9 -0.6
v 0.5 2.9 -0.6
v 0.3 2.9 -1
v 0.5 2.9 -1
v 0.5 3.1 -0.5
v 0.7 3.1 -0.5
v 0.5 3.1 -1.1
v 0.7 3.1 -1.1
v 0.7 3.2 -0.4
v 1.3 3.2 -0.4
v 1.3 3.2 -0.6
v 1.4 3.2 -0.6
v 1.3 3.2 -1
v 1.4 3.2 -1
v 0.7 3.2 -1.2
v 1.3 3.2 -1.2
v 1.3 3.3 -0.4
v 1.5 3.3 -0.4
v 1.3 3.3 -0.6
v 1.5 3.3 -0.6
v 1.3 3.3 -1
v 1.5 3.3 -1
v 1.3 3.3 -1.2
v 1.5 3.3 -1.2

# faces
f 3/1/1 2/1/1 1/1/1
f 4/1/1 2/1/1 3/1/1
f 7/1/1 6/1/1 5/1/1
f 8/1/1 6/1/1 7/1/1
f 13/1/1 10/1/1 9/1/1
f 14/1/1 12/1/1 11/1/1
f 15/1/1 13/1/1 9/1/1
f 15/1/1 14/1/1 13/1/1
f 16/1/1 12/1/1 14/1/1
f 16/1/1 14/1/1 15/1/1
f 19/1/1 18/1/1 17/1/1
f 20/1/1 18/1/1 19/1/1
f 21/1/1 19/1/1 17/1/1
f 22/1/1 18/1/1 20/1/1
f 23/1/1 21/1/1 17/1/1
f 23/1/1 22/1/1 21/1/1
f 24/1/1 18/1/1 22/1/1
f 24/1/1 22/1/1 23/1/1
f 29/1/1 26/1/1 25/1/1
f 30/1/1 28/1/1 27/1/1
f 31/1/1 29/1/1 25/1/1
f 31/1/1 30/1/1 29/1/1
f 32/1/1 28/1/1 30/1/1
f 32/1/1 30/1/1 31/1/1
f 37/2/1 34/2/1 33/2/1
f 38/2/1 34/2/1 37/2/1
f 39/2/1 36/2/1 35/2/1
f 40/2/1 36/2/1 39/2/1
f 41/1/2 42/1/2 43/1/2
f 43/1/2 42/1/2 44/1/2
f 45/1/2 46/1/2 47/1/2
f 47/1/2 46/1/2 48/1/2
f 45/1/2 47/1/2 49/1/2
f 48/1/2 46/1/2 50/1/2
f 45/1/2 49/1/2 51/1/2
f 49/1/2 50/1/2 51/1/2
f 51/1/2 50/1/2 52/1/2
f 50/1/2 46/1/2 53/1/2
f 52/1/2 50/1/2 53/1/2
f 53/1/2 46/1/2 54/1/2
f 52/1/2 53/1/2 55/1/2
f 55/1/2 53/1/2 56/1/2
f 57/2/2 58/2/2 61/2/2
f 61/2/2 58/2/2 62/2/2
f 59/2/2 60/2/2 63/2/2
f 63/2/2 60/2/2 64/2/2
f 67/1/3 66/1/3 65/1/3
f 68/1/3 66/1/3 67/1/3
f 70/1/3 67/1/3 65/1/3
f 71/2/3 69/2/3 68/2/3
f 71/1/3 67/1/3 70/1/3
f 71/2/3 68/2/3 67/2/3
f 72/2/3 69/2/3 71/2/3
f 73/2/3 69/2/3 72/2/3
f 76/1/3 75/1/3 74/1/3
f 77/1/3 75/1/3 76/1/3
f 80/1/3 79/1/3 78/1/3
f 81/1/3 79/1/3 80/1/3
f 84/1/3 83/1/3 82/1/3
f 86/1/3 84/1/3 82/1/3
f 86/1/3 85/1/3 84/1/3
f 87/1/3 85/1/3 86/1/3
f 90/1/3 89/1/3 88/1/3
f 91/1/3 89/1/3 90/1/3
f 95/2/3 93/2/3 92/2/3
f 96/2/3 95/2/3 94/2/3
f 97/2/3 93/2/3 95/2/3
f 97/2/3 95/2/3 96/2/3
f 98/2/4 99/2/4 101/2/4
f 100/2/4 101/2/4 102/2/4
f 101/2/4 99/2/4 103/2/4
f 102/2/4 101/2/4 103/2/4
f 104/1/4 105/1/4 106/1/4
f 106/1/4 105/1/4 107/1/4
f 108/1/4 109/1/4 110/1/4
f 108/1/4 110/1/4 112/1/4
f 110/1/4 111/1/4 112/1/4
f 112/1/4 111/1/4 113/1/4
f 114/1/4 115/1/4 116/1/4
f 116/1/4 115/1/4 117/1/4
f 118/1/4 119/1/4 120/1/4
f 120/1/4 119/1/4 121/1/4
f 122/1/4 123/1/4 124/1/4
f 124/1/4 123/1/4 125/1/4
f 122/1/4 124/1/4 127/1/4
f 125/2/4 126/2/4 128/2/4
f 127/1/4 124/1/4 128/1/4
f 124/2/4 125/2/4 128/2/4
f 128/2/4 126/2/4 129/2/4
f 129/2/4 126/2/4 130/2/4
f 134/1/5 132/1/5 131/1/5
f 135/1/5 134/1/5 133/1/5
f 136/1/5 132/1/5 134/1/5
f 136/1/5 134/1/5 135/1/5
f 137/1/5 132/1/5 136/1/5
f 138/1/5 132/1/5 137/1/5
f 142/1/5 140/1/5 139/1/5
f 143/1/5 142/1/5 141/1/5
f 144/1/5 140/1/5 142/1/5
f 144/1/5 142/1/5 143/1/5
f 145/1/5 140/1/5 144/1/5
f 146/1/5 140/1/5 145/1/5
f 149/1/5 148/1/5 147/1/5
f 150/1/5 148/1/5 149/1/5
f 153/2/5 152/2/5 151/2/5
f 154/2/5 152/2/5 153/2/5
f 157/2/5 156/2/5 155/2/5
f 158/2/5 156/2/5 157/2/5
f 159/1/6 160/1/6 163/1/6
f 163/1/6 160/1/6 164/1/6
f 161/1/6 162/1/6 165/1/6
f 165/1/6 162/1/6 166/1/6
f 167/1/6 168/1/6 169/1/6
f 169/1/6 168/1/6 170/1/6
f 171/1/6 172/1/6 173/1/6
f 173/1/6 172/1/6 174/1/6
f 175/1/6 176/1/6 177/1/6
f 177/1/6 176/1/6 178/1/6
f 179/1/6 180/1/6 181/1/6
f 179/1/6 181/1/6 183/1/6
f 181/1/6 182/1/6 183/1/6
f 183/1/6 182/1/6 184/1/6
f 179/1/6 183/1/6 185/1/6
f 185/1/6 183/1/6 186/1/6
f 187/2/6 188/2/6 189/2/6
f 189/2/6 188/2/6 190/2/6
f 191/2/6 192/2/6 193/2/6
f 193/2/6 192/2/6 194/2/6
