# MagicaVoxel @ Ephtracy

# group
o 

# material
mtllib group.mtl
usemtl palette

# normals
vn -1 0 0
vn 1 0 0
vn 0 0 1
vn 0 0 -1
vn 0 -1 0
vn 0 1 0

# texcoords
vt 0.767578 0.5
vt 0.771484 0.5

# verts
v 0.3 2.3 -0.3
v 0.3 2.3 -1.3
v 0.3 3.3 -0.3
v 0.3 3.3 -1.3
v 1.3 2.3 -0.3
v 1.3 2.3 -1.3
v 1.3 2.6 -0.7
v 1.3 2.6 -0.9
v 1.3 2.8 -0.7
v 1.3 2.8 -0.9
v 1.3 3 -0.4
v 1.3 3 -0.6
v 1.3 3 -1
v 1.3 3 -1.2
v 1.3 3.2 -0.4
v 1.3 3.2 -0.6
v 1.3 3.2 -1
v 1.3 3.2 -1.2
v 1.3 3.3 -0.3
v 1.3 3.3 -1.3
v 0.3 2.3 -0.3
v 0.3 3.3 -0.3
v 1.3 2.3 -0.3
v 1.3 3.3 -0.3
v 0.3 2.3 -1.3
v 0.3 3.3 -1.3
v 1.3 2.3 -1.3
v 1.3 3.3 -1.3
v 0.3 2.3 -0.3
v 1.3 2.3 -0.3
v 0.3 2.3 -1.3
v 1.3 2.3 -1.3
v 0.3 3.3 -0.3
v 1.3 3.3 -0.3
v 0.3 3.3 -1.3
v 1.3 3.3 -1.3

# faces
f 3/2/1 2/2/1 1/2/1
f 4/2/1 2/2/1 3/2/1
f 5/2/2 6/2/2 7/2/2
f 7/2/2 6/2/2 8/2/2
f 5/2/2 7/2/2 9/2/2
f 7/1/2 8/1/2 9/1/2
f 8/2/2 6/2/2 10/2/2
f 9/1/2 8/1/2 10/1/2
f 5/2/2 9/2/2 11/2/2
f 9/2/2 10/2/2 11/2/2
f 11/2/2 10/2/2 12/2/2
f 10/2/2 6/2/2 13/2/2
f 12/2/2 10/2/2 13/2/2
f 13/2/2 6/2/2 14/2/2
f 11/1/2 12/1/2 15/1/2
f 5/2/2 11/2/2 15/2/2
f 12/2/2 13/2/2 16/2/2
f 15/1/2 12/1/2 16/1/2
f 13/1/2 14/1/2 17/1/2
f 16/2/2 13/2/2 17/2/2
f 14/2/2 6/2/2 18/2/2
f 17/1/2 14/1/2 18/1/2
f 16/2/2 17/2/2 19/2/2
f 15/2/2 16/2/2 19/2/2
f 17/2/2 18/2/2 19/2/2
f 5/2/2 15/2/2 19/2/2
f 18/2/2 6/2/2 20/2/2
f 19/2/2 18/2/2 20/2/2
f 23/2/3 22/2/3 21/2/3
f 24/2/3 22/2/3 23/2/3
f 25/2/4 26/2/4 27/2/4
f 27/2/4 26/2/4 28/2/4
f 31/2/5 30/2/5 29/2/5
f 32/2/5 30/2/5 31/2/5
f 33/2/6 34/2/6 35/2/6
f 35/2/6 34/2/6 36/2/6
