# MagicaVoxel @ Ephtracy

# group
o 

# material
mtllib immune.mtl
usemtl palette

# normals
vn -1 0 0
vn 1 0 0
vn 0 0 1
vn 0 0 -1
vn 0 -1 0
vn 0 1 0

# texcoords
vt 0.482422 0.5
vt 0.541016 0.5
vt 0.556641 0.5
vt 0.560547 0.5

# verts
v 0.2 2.2 -0.2
v 0.2 2.2 -0.3
v 0.2 2.2 -0.5
v 0.2 2.2 -1
v 0.2 2.2 -1.2
v 0.2 2.2 -1.4
v 0.2 2.3 -0.6
v 0.2 2.3 -0.8
v 0.2 2.4 -0.3
v 0.2 2.4 -0.5
v 0.2 2.4 -1
v 0.2 2.4 -1.2
v 0.2 2.5 -0.6
v 0.2 2.5 -0.8
v 0.2 2.8 -0.2
v 0.2 2.8 -0.4
v 0.2 2.8 -0.7
v 0.2 2.8 -0.9
v 0.2 2.8 -1.1
v 0.2 2.8 -1.3
v 0.2 3 -0.2
v 0.2 3 -0.4
v 0.2 3 -0.6
v 0.2 3 -0.7
v 0.2 3 -0.9
v 0.2 3 -1.1
v 0.2 3 -1.3
v 0.2 3.2 -0.4
v 0.2 3.2 -0.6
v 0.2 3.2 -1
v 0.2 3.2 -1.3
v 0.2 3.4 -0.2
v 0.2 3.4 -1
v 0.2 3.4 -1.3
v 0.2 3.4 -1.4
v 0.4 3.1 -0.1
v 0.4 3.1 -0.2
v 0.4 3.3 -0.1
v 0.4 3.3 -0.2
v 0.6 2.5 -0.1
v 0.6 2.5 -0.2
v 0.6 2.7 -0.1
v 0.6 2.7 -0.2
v 1 3.1 -0.1
v 1 3.1 -0.2
v 1 3.3 -0.1
v 1 3.3 -0.2
v 0.6 3.1 -0.1
v 0.6 3.1 -0.2
v 0.6 3.3 -0.1
v 0.6 3.3 -0.2
v 1 2.5 -0.1
v 1 2.5 -0.2
v 1 2.7 -0.1
v 1 2.7 -0.2
v 1.2 3.1 -0.1
v 1.2 3.1 -0.2
v 1.2 3.3 -0.1
v 1.2 3.3 -0.2
v 1.4 2.2 -0.2
v 1.4 2.2 -0.4
v 1.4 2.2 -0.6
v 1.4 2.2 -1.2
v 1.4 2.2 -1.4
v 1.4 2.4 -0.4
v 1.4 2.4 -0.6
v 1.4 2.4 -0.9
v 1.4 2.4 -1.1
v 1.4 2.4 -1.2
v 1.4 2.4 -1.4
v 1.4 2.5 -0.2
v 1.4 2.5 -0.4
v 1.4 2.6 -0.9
v 1.4 2.6 -1.1
v 1.4 2.7 -0.2
v 1.4 2.7 -0.4
v 1.4 2.7 -0.6
v 1.4 2.7 -0.8
v 1.4 2.9 -0.6
v 1.4 2.9 -0.8
v 1.4 2.9 -0.9
v 1.4 2.9 -1.1
v 1.4 3.1 -0.9
v 1.4 3.1 -1.1
v 1.4 3.2 -0.3
v 1.4 3.2 -0.5
v 1.4 3.4 -0.2
v 1.4 3.4 -0.3
v 1.4 3.4 -0.5
v 1.4 3.4 -1.4
v 0.4 3.1 -0.1
v 0.4 3.3 -0.1
v 0.6 2.5 -0.1
v 0.6 2.7 -0.1
v 0.6 3.1 -0.1
v 0.6 3.3 -0.1
v 1 2.5 -0.1
v 1 2.7 -0.1
v 1 3.1 -0.1
v 1 3.3 -0.1
v 1.2 3.1 -0.1
v 1.2 3.3 -0.1
v 0.2 2.2 -0.2
v 0.2 2.8 -0.2
v 0.2 3 -0.2
v 0.2 3.4 -0.2
v 0.4 2.8 -0.2
v 0.4 3 -0.2
v 0.4 3.1 -0.2
v 0.4 3.3 -0.2
v 0.6 2.5 -0.2
v 0.6 2.7 -0.2
v 0.6 3.1 -0.2
v 0.6 3.3 -0.2
v 1 2.5 -0.2
v 1 2.7 -0.2
v 1 3.1 -0.2
v 1 3.3 -0.2
v 1.2 2.5 -0.2
v 1.2 2.7 -0.2
v 1.2 3.1 -0.2
v 1.2 3.3 -0.2
v 1.4 2.2 -0.2
v 1.4 2.5 -0.2
v 1.4 2.7 -0.2
v 1.4 3.4 -0.2
v 0.2 2.2 -1.4
v 0.2 3.4 -1.4
v 0.3 2.5 -1.4
v 0.3 2.7 -1.4
v 0.3 3 -1.4
v 0.3 3.2 -1.4
v 0.5 2.5 -1.4
v 0.5 2.7 -1.4
v 0.5 3 -1.4
v 0.5 3.2 -1.4
v 0.7 2.8 -1.4
v 0.7 3 -1.4
v 0.8 2.5 -1.4
v 0.8 2.7 -1.4
v 0.9 2.8 -1.4
v 0.9 3 -1.4
v 1 2.5 -1.4
v 1 2.7 -1.4
v 1 3 -1.4
v 1 3.2 -1.4
v 1.2 2.2 -1.4
v 1.2 2.4 -1.4
v 1.2 3 -1.4
v 1.2 3.2 -1.4
v 1.4 2.2 -1.4
v 1.4 2.4 -1.4
v 1.4 3.4 -1.4
v 0.2 2.2 -0.2
v 1.4 2.2 -0.2
v 0.2 2.2 -0.3
v 0.4 2.2 -0.3
v 0.9 2.2 -0.3
v 1.1 2.2 -0.3
v 1.2 2.2 -0.4
v 1.4 2.2 -0.4
v 0.2 2.2 -0.5
v 0.4 2.2 -0.5
v 0.9 2.2 -0.5
v 1.1 2.2 -0.5
v 1.2 2.2 -0.6
v 1.4 2.2 -0.6
v 0.7 2.2 -0.7
v 0.9 2.2 -0.7
v 0.7 2.2 -0.9
v 0.9 2.2 -0.9
v 0.2 2.2 -1
v 0.4 2.2 -1
v 0.2 2.2 -1.2
v 0.4 2.2 -1.2
v 1.2 2.2 -1.2
v 1.4 2.2 -1.2
v 0.2 2.2 -1.4
v 1.2 2.2 -1.4
v 1.4 2.2 -1.4
v 0.6 2.5 -0.1
v 1 2.5 -0.1
v 0.6 2.5 -0.2
v 1 2.5 -0.2
v 0.4 3.1 -0.1
v 0.6 3.1 -0.1
v 1 3.1 -0.1
v 1.2 3.1 -0.1
v 0.4 3.1 -0.2
v 0.6 3.1 -0.2
v 1 3.1 -0.2
v 1.2 3.1 -0.2
v 0.6 2.7 -0.1
v 1 2.7 -0.1
v 0.6 2.7 -0.2
v 1 2.7 -0.2
v 0.4 3.3 -0.1
v 0.6 3.3 -0.1
v 1 3.3 -0.1
v 1.2 3.3 -0.1
v 0.4 3.3 -0.2
v 0.6 3.3 -0.2
v 1 3.3 -0.2
v 1.2 3.3 -0.2
v 0.2 3.4 -0.2
v 1.4 3.4 -0.2
v 1.2 3.4 -0.3
v 1.4 3.4 -0.3
v 0.4 3.4 -0.4
v 0.6 3.4 -0.4
v 1.2 3.4 -0.5
v 1.4 3.4 -0.5
v 0.4 3.4 -0.6
v 0.6 3.4 -0.6
v 0.8 3.4 -0.8
v 1 3.4 -0.8
v 0.2 3.4 -1
v 0.4 3.4 -1
v 0.8 3.4 -1
v 1 3.4 -1
v 1.1 3.4 -1.1
v 1.3 3.4 -1.1
v 0.2 3.4 -1.3
v 0.4 3.4 -1.3
v 1.1 3.4 -1.3
v 1.3 3.4 -1.3
v 0.2 3.4 -1.4
v 1.4 3.4 -1.4

# faces
f 7/4/1 4/4/1 3/4/1
f 8/4/1 4/4/1 7/4/1
f 9/4/1 2/4/1 1/4/1
f 9/3/1 3/3/1 2/3/1
f 10/4/1 7/4/1 3/4/1
f 10/3/1 3/3/1 9/3/1
f 11/4/1 4/4/1 8/4/1
f 11/3/1 5/3/1 4/3/1
f 12/4/1 6/4/1 5/4/1
f 12/3/1 5/3/1 11/3/1
f 13/4/1 7/4/1 10/4/1
f 13/2/1 8/2/1 7/2/1
f 13/4/1 10/4/1 9/4/1
f 14/4/1 12/4/1 11/4/1
f 14/2/1 8/2/1 13/2/1
f 14/4/1 11/4/1 8/4/1
f 15/4/1 13/4/1 9/4/1
f 15/4/1 9/4/1 1/4/1
f 15/4/1 14/4/1 13/4/1
f 16/4/1 14/4/1 15/4/1
f 17/4/1 14/4/1 16/4/1
f 18/4/1 12/4/1 14/4/1
f 18/4/1 14/4/1 17/4/1
f 19/4/1 12/4/1 18/4/1
f 20/4/1 6/4/1 12/4/1
f 20/4/1 12/4/1 19/4/1
f 21/2/1 16/2/1 15/2/1
f 22/4/1 17/4/1 16/4/1
f 22/2/1 16/2/1 21/2/1
f 23/4/1 17/4/1 22/4/1
f 24/3/1 18/3/1 17/3/1
f 24/4/1 17/4/1 23/4/1
f 25/4/1 19/4/1 18/4/1
f 25/3/1 18/3/1 24/3/1
f 26/2/1 20/2/1 19/2/1
f 26/4/1 19/4/1 25/4/1
f 27/4/1 6/4/1 20/4/1
f 27/2/1 20/2/1 26/2/1
f 28/2/1 23/2/1 22/2/1
f 28/4/1 22/4/1 21/4/1
f 29/4/1 24/4/1 23/4/1
f 29/2/1 23/2/1 28/2/1
f 29/4/1 26/4/1 25/4/1
f 29/4/1 27/4/1 26/4/1
f 29/4/1 25/4/1 24/4/1
f 30/4/1 27/4/1 29/4/1
f 31/4/1 6/4/1 27/4/1
f 31/4/1 27/4/1 30/4/1
f 32/4/1 28/4/1 21/4/1
f 32/4/1 30/4/1 29/4/1
f 32/4/1 29/4/1 28/4/1
f 33/3/1 31/3/1 30/3/1
f 33/4/1 30/4/1 32/4/1
f 34/4/1 6/4/1 31/4/1
f 34/3/1 31/3/1 33/3/1
f 35/4/1 6/4/1 34/4/1
f 38/1/1 37/1/1 36/1/1
f 39/1/1 37/1/1 38/1/1
f 42/1/1 41/1/1 40/1/1
f 43/1/1 41/1/1 42/1/1
f 46/1/1 45/1/1 44/1/1
f 47/1/1 45/1/1 46/1/1
f 48/1/2 49/1/2 50/1/2
f 50/1/2 49/1/2 51/1/2
f 52/1/2 53/1/2 54/1/2
f 54/1/2 53/1/2 55/1/2
f 56/1/2 57/1/2 58/1/2
f 58/1/2 57/1/2 59/1/2
f 60/4/2 61/4/2 65/4/2
f 61/3/2 62/3/2 65/3/2
f 62/4/2 63/4/2 66/4/2
f 65/3/2 62/3/2 66/3/2
f 66/4/2 63/4/2 67/4/2
f 67/4/2 63/4/2 68/4/2
f 63/3/2 64/3/2 69/3/2
f 68/4/2 63/4/2 69/4/2
f 69/3/2 64/3/2 70/3/2
f 60/4/2 65/4/2 71/4/2
f 65/4/2 66/4/2 71/4/2
f 66/4/2 67/4/2 71/4/2
f 71/4/2 67/4/2 72/4/2
f 67/2/2 68/2/2 73/2/2
f 72/4/2 67/4/2 73/4/2
f 69/4/2 70/4/2 74/4/2
f 73/2/2 68/2/2 74/2/2
f 68/4/2 69/4/2 74/4/2
f 71/2/2 72/2/2 75/2/2
f 72/4/2 73/4/2 76/4/2
f 75/2/2 72/2/2 76/2/2
f 73/4/2 74/4/2 76/4/2
f 76/4/2 74/4/2 77/4/2
f 77/4/2 74/4/2 78/4/2
f 75/4/2 76/4/2 79/4/2
f 76/4/2 77/4/2 79/4/2
f 77/3/2 78/3/2 79/3/2
f 78/4/2 74/4/2 80/4/2
f 79/3/2 78/3/2 80/3/2
f 80/4/2 74/4/2 81/4/2
f 74/4/2 70/4/2 82/4/2
f 81/4/2 74/4/2 82/4/2
f 80/4/2 81/4/2 83/4/2
f 79/4/2 80/4/2 83/4/2
f 81/3/2 82/3/2 83/3/2
f 82/4/2 70/4/2 84/4/2
f 83/3/2 82/3/2 84/3/2
f 79/4/2 83/4/2 85/4/2
f 75/4/2 79/4/2 85/4/2
f 83/4/2 84/4/2 85/4/2
f 85/4/2 84/4/2 86/4/2
f 75/4/2 85/4/2 87/4/2
f 85/2/2 86/2/2 88/2/2
f 87/4/2 85/4/2 88/4/2
f 86/4/2 84/4/2 89/4/2
f 88/2/2 86/2/2 89/2/2
f 84/4/2 70/4/2 90/4/2
f 89/4/2 84/4/2 90/4/2
f 95/1/3 92/1/3 91/1/3
f 96/1/3 92/1/3 95/1/3
f 97/1/3 94/1/3 93/1/3
f 98/1/3 94/1/3 97/1/3
f 101/1/3 100/1/3 99/1/3
f 102/1/3 100/1/3 101/1/3
f 107/4/3 104/4/3 103/4/3
f 107/2/3 105/2/3 104/2/3
f 108/4/3 106/4/3 105/4/3
f 108/2/3 105/2/3 107/2/3
f 109/4/3 106/4/3 108/4/3
f 110/4/3 106/4/3 109/4/3
f 111/4/3 107/4/3 103/4/3
f 111/4/3 108/4/3 107/4/3
f 111/4/3 109/4/3 108/4/3
f 112/4/3 109/4/3 111/4/3
f 113/4/3 109/4/3 112/4/3
f 114/4/3 106/4/3 110/4/3
f 115/4/3 111/4/3 103/4/3
f 116/4/3 113/4/3 112/4/3
f 116/4/3 114/4/3 113/4/3
f 117/4/3 114/4/3 116/4/3
f 118/4/3 106/4/3 114/4/3
f 118/4/3 114/4/3 117/4/3
f 119/4/3 115/4/3 103/4/3
f 119/4/3 117/4/3 116/4/3
f 119/4/3 116/4/3 115/4/3
f 120/4/3 117/4/3 119/4/3
f 121/4/3 117/4/3 120/4/3
f 122/4/3 106/4/3 118/4/3
f 123/4/3 119/4/3 103/4/3
f 124/2/3 120/2/3 119/2/3
f 124/4/3 119/4/3 123/4/3
f 125/4/3 121/4/3 120/4/3
f 125/2/3 120/2/3 124/2/3
f 125/4/3 122/4/3 121/4/3
f 126/4/3 106/4/3 122/4/3
f 126/4/3 122/4/3 125/4/3
f 127/4/4 128/4/4 129/4/4
f 129/4/4 128/4/4 130/4/4
f 130/4/4 128/4/4 131/4/4
f 131/4/4 128/4/4 132/4/4
f 127/4/4 129/4/4 133/4/4
f 129/3/4 130/3/4 133/3/4
f 130/4/4 131/4/4 134/4/4
f 133/3/4 130/3/4 134/3/4
f 131/3/4 132/3/4 135/3/4
f 134/4/4 131/4/4 135/4/4
f 132/4/4 128/4/4 136/4/4
f 135/3/4 132/3/4 136/3/4
f 134/4/4 135/4/4 137/4/4
f 133/4/4 134/4/4 137/4/4
f 135/4/4 136/4/4 137/4/4
f 137/4/4 136/4/4 138/4/4
f 127/4/4 133/4/4 139/4/4
f 133/4/4 137/4/4 139/4/4
f 139/4/4 137/4/4 140/4/4
f 137/2/4 138/2/4 141/2/4
f 140/4/4 137/4/4 141/4/4
f 138/4/4 136/4/4 142/4/4
f 141/2/4 138/2/4 142/2/4
f 139/3/4 140/3/4 143/3/4
f 127/4/4 139/4/4 143/4/4
f 140/4/4 141/4/4 144/4/4
f 143/3/4 140/3/4 144/3/4
f 141/4/4 142/4/4 144/4/4
f 142/4/4 136/4/4 145/4/4
f 144/4/4 142/4/4 145/4/4
f 136/4/4 128/4/4 146/4/4
f 145/4/4 136/4/4 146/4/4
f 144/4/4 145/4/4 147/4/4
f 127/4/4 143/4/4 147/4/4
f 143/4/4 144/4/4 147/4/4
f 147/4/4 145/4/4 148/4/4
f 145/3/4 146/3/4 149/3/4
f 148/4/4 145/4/4 149/4/4
f 146/4/4 128/4/4 150/4/4
f 149/3/4 146/3/4 150/3/4
f 147/3/4 148/3/4 151/3/4
f 148/4/4 149/4/4 152/4/4
f 151/3/4 148/3/4 152/3/4
f 149/4/4 150/4/4 152/4/4
f 150/4/4 128/4/4 153/4/4
f 152/4/4 150/4/4 153/4/4
f 156/4/5 155/4/5 154/4/5
f 157/4/5 155/4/5 156/4/5
f 158/4/5 155/4/5 157/4/5
f 159/4/5 155/4/5 158/4/5
f 160/4/5 155/4/5 159/4/5
f 161/4/5 155/4/5 160/4/5
f 162/3/5 157/3/5 156/3/5
f 163/4/5 158/4/5 157/4/5
f 163/3/5 157/3/5 162/3/5
f 164/2/5 159/2/5 158/2/5
f 164/4/5 158/4/5 163/4/5
f 165/4/5 160/4/5 159/4/5
f 165/2/5 159/2/5 164/2/5
f 166/4/5 163/4/5 162/4/5
f 166/4/5 160/4/5 165/4/5
f 166/4/5 165/4/5 164/4/5
f 166/3/5 161/3/5 160/3/5
f 166/4/5 164/4/5 163/4/5
f 167/3/5 161/3/5 166/3/5
f 168/4/5 166/4/5 162/4/5
f 168/4/5 167/4/5 166/4/5
f 169/4/5 167/4/5 168/4/5
f 170/4/5 168/4/5 162/4/5
f 170/2/5 169/2/5 168/2/5
f 171/4/5 167/4/5 169/4/5
f 171/2/5 169/2/5 170/2/5
f 172/4/5 170/4/5 162/4/5
f 172/4/5 171/4/5 170/4/5
f 173/4/5 171/4/5 172/4/5
f 174/3/5 173/3/5 172/3/5
f 175/4/5 171/4/5 173/4/5
f 175/3/5 173/3/5 174/3/5
f 176/4/5 167/4/5 171/4/5
f 176/4/5 171/4/5 175/4/5
f 177/4/5 167/4/5 176/4/5
f 178/4/5 175/4/5 174/4/5
f 178/4/5 176/4/5 175/4/5
f 179/3/5 177/3/5 176/3/5
f 179/4/5 176/4/5 178/4/5
f 180/3/5 177/3/5 179/3/5
f 183/1/5 182/1/5 181/1/5
f 184/1/5 182/1/5 183/1/5
f 189/1/5 186/1/5 185/1/5
f 190/1/5 186/1/5 189/1/5
f 191/1/5 188/1/5 187/1/5
f 192/1/5 188/1/5 191/1/5
f 193/1/6 194/1/6 195/1/6
f 195/1/6 194/1/6 196/1/6
f 197/1/6 198/1/6 201/1/6
f 201/1/6 198/1/6 202/1/6
f 199/1/6 200/1/6 203/1/6
f 203/1/6 200/1/6 204/1/6
f 205/4/6 206/4/6 207/4/6
f 207/4/6 206/4/6 208/4/6
f 205/4/6 207/4/6 209/4/6
f 209/4/6 207/4/6 210/4/6
f 207/2/6 208/2/6 211/2/6
f 210/4/6 207/4/6 211/4/6
f 211/2/6 208/2/6 212/2/6
f 209/3/6 210/3/6 213/3/6
f 205/4/6 209/4/6 213/4/6
f 211/4/6 212/4/6 214/4/6
f 213/3/6 210/3/6 214/3/6
f 210/4/6 211/4/6 214/4/6
f 213/4/6 214/4/6 215/4/6
f 214/4/6 212/4/6 215/4/6
f 215/4/6 212/4/6 216/4/6
f 205/4/6 213/4/6 217/4/6
f 213/4/6 215/4/6 217/4/6
f 217/4/6 215/4/6 218/4/6
f 215/3/6 216/3/6 219/3/6
f 218/4/6 215/4/6 219/4/6
f 216/4/6 212/4/6 220/4/6
f 219/3/6 216/3/6 220/3/6
f 218/4/6 219/4/6 221/4/6
f 220/4/6 212/4/6 221/4/6
f 219/4/6 220/4/6 221/4/6
f 221/4/6 212/4/6 222/4/6
f 217/3/6 218/3/6 223/3/6
f 218/4/6 221/4/6 224/4/6
f 223/3/6 218/3/6 224/3/6
f 221/2/6 222/2/6 225/2/6
f 224/4/6 221/4/6 225/4/6
f 222/4/6 212/4/6 226/4/6
f 225/2/6 222/2/6 226/2/6
f 224/4/6 225/4/6 227/4/6
f 223/4/6 224/4/6 227/4/6
f 225/4/6 226/4/6 227/4/6
f 226/4/6 212/4/6 228/4/6
f 227/4/6 226/4/6 228/4/6
